<svg width="43" height="54" viewBox="0 0 43 54" fill="none" xmlns="http://www.w3.org/2000/svg">
<path d="M33.6027 27.4311C22.3574 33.1025 7.42082 28.2001 1.42908 26.5689C1.95146 28.9785 0.374162 34.1934 0.394387 34.6017C29.451 35.3949 35.399 25.2955 33.6027 27.4311Z" fill="white"/>
<path d="M37.7573 28.1553C29.2858 34.5012 13.1125 36.3616 7.26296 36.922C7.71513 37.9144 11.8325 38.194 14.1753 38.2168C26.7755 38.3396 42.6972 31.7823 41.1445 30.946C37.8832 30.6982 38.8929 28.7079 37.7573 28.1553Z" fill="white"/>
<path d="M34.9048 37.19C24.3872 41.283 11.5 41.1596 5.76956 39.3801C4.6532 43.2856 1.63088 43.0379 1.65596 43.544C23.8627 46.4017 35.7389 37.7576 34.9048 37.19Z" fill="white"/>
<path d="M9.68854 48.5606C9.80209 48.737 9.90057 48.8544 9.90057 48.8544C9.90057 48.8544 9.44553 48.538 9.68854 48.5606C9.31683 47.983 8.78371 46.7722 11.0164 46.9725C14.6598 47.2995 21.5838 48.4528 30.2983 43.3532C34.1429 41.6406 31.5995 47.2464 28.6444 48.6105C16.9416 54.6569 20.1575 53.4744 14.0753 50.5011C10.9636 48.9801 9.94309 48.5843 9.68854 48.5606Z" fill="white"/>
<path d="M14.7176 22.7725H9.60748" stroke="white" stroke-width="0.817621"/>
<path d="M31.6829 22.7725H26.5728" stroke="white" stroke-width="0.817621"/>
<path d="M5.31476 15.4141L17.5791 22.7726H20.5429M35.5667 15.6185L23.5068 22.7726H20.5429M22.8936 19.7066L25.5509 15.6185M17.9879 19.7066L15.3306 15.6185M20.5429 22.7726V6.21582" stroke="white" stroke-width="0.817621" stroke-linecap="round" stroke-linejoin="round"/>
<mask id="path-5-inside-1_1980_371" fill="white">
<rect x="18.8056" y="2.9458" width="3.67929" height="3.67929" rx="0.40881"/>
</mask>
<rect x="18.8056" y="2.9458" width="3.67929" height="3.67929" rx="0.40881" stroke="white" stroke-width="2.45286" mask="url(#path-5-inside-1_1980_371)"/>
<mask id="path-6-inside-2_1980_371" fill="white">
<rect x="30.6614" y="20.9336" width="3.67929" height="3.67929" rx="0.40881"/>
</mask>
<rect x="30.6614" y="20.9336" width="3.67929" height="3.67929" rx="0.40881" stroke="white" stroke-width="2.45286" mask="url(#path-6-inside-2_1980_371)"/>
<mask id="path-7-inside-3_1980_371" fill="white">
<rect x="6.95038" y="20.9336" width="3.67929" height="3.67929" rx="0.40881"/>
</mask>
<rect x="6.95038" y="20.9336" width="3.67929" height="3.67929" rx="0.40881" stroke="white" stroke-width="2.45286" mask="url(#path-7-inside-3_1980_371)"/>
<mask id="path-8-inside-4_1980_371" fill="white">
<rect x="3.08966" y="11.9395" width="3.67929" height="3.67929" rx="0.40881" transform="rotate(30.4189 3.08966 11.9395)"/>
</mask>
<rect x="3.08966" y="11.9395" width="3.67929" height="3.67929" rx="0.40881" transform="rotate(30.4189 3.08966 11.9395)" stroke="white" stroke-width="2.45286" mask="url(#path-8-inside-4_1980_371)"/>
<mask id="path-9-inside-5_1980_371" fill="white">
<rect width="3.67929" height="3.67929" rx="0.40881" transform="matrix(-0.862347 0.506318 0.506318 0.862347 37.9223 11.9395)"/>
</mask>
<rect width="3.67929" height="3.67929" rx="0.40881" transform="matrix(-0.862347 0.506318 0.506318 0.862347 37.9223 11.9395)" stroke="white" stroke-width="2.45286" mask="url(#path-9-inside-5_1980_371)"/>
<mask id="path-10-inside-6_1980_371" fill="white">
<rect width="3.67929" height="3.67929" rx="0.40881" transform="matrix(-0.547894 0.836548 0.836548 0.547894 26.1358 11.5308)"/>
</mask>
<rect width="3.67929" height="3.67929" rx="0.40881" transform="matrix(-0.547894 0.836548 0.836548 0.547894 26.1358 11.5308)" stroke="white" stroke-width="2.45286" mask="url(#path-10-inside-6_1980_371)"/>
<mask id="path-11-inside-7_1980_371" fill="white">
<rect x="14.9338" y="11.5308" width="3.67929" height="3.67929" rx="0.40881" transform="rotate(56.7773 14.9338 11.5308)"/>
</mask>
<rect x="14.9338" y="11.5308" width="3.67929" height="3.67929" rx="0.40881" transform="rotate(56.7773 14.9338 11.5308)" stroke="white" stroke-width="2.45286" mask="url(#path-11-inside-7_1980_371)"/>
<path d="M2.53541 4.02618C2.534 3.99549 2.57084 3.98968 2.59283 3.98621C2.76874 3.95844 3.58948 3.96241 4.28245 4.07291C4.32728 4.08007 4.36179 4.08154 4.38795 4.07741C4.43899 4.06935 4.45494 4.04177 4.48608 3.98009C4.52364 3.90574 4.5751 3.80393 4.73985 3.69923C4.80784 3.65603 4.88998 3.62659 4.98395 3.61176C5.35412 3.55333 5.86082 3.72492 6.18881 4.01974C6.19086 4.02158 6.19189 4.02185 6.19199 4.02183C6.21576 4.01808 6.2836 3.9111 6.3703 3.53277C6.4337 3.25613 6.48903 2.90977 6.51125 2.65033C6.54461 2.26114 6.73024 1.69201 6.85307 1.31544C6.90548 1.15475 6.94689 1.02784 6.95473 0.97965C6.96079 0.942521 6.97626 0.921709 7.00076 0.917843C7.01648 0.915362 7.03282 0.920886 7.05072 0.934729C7.25308 1.09143 7.84978 2.57138 7.90198 3.04614C7.94487 3.43599 7.68443 3.7453 7.55929 3.89394C7.54448 3.91151 7.52867 3.9303 7.5165 3.9458C7.58924 3.90569 7.72968 3.74637 7.91602 3.53499C8.18485 3.23003 8.59113 2.7692 9.1573 2.24626C9.95044 1.51368 10.4257 0.836625 10.7097 0.432136C10.8989 0.16274 10.9783 0.0529812 11.0446 0.0425172C11.0603 0.0400317 11.09 0.0414875 11.1112 0.0792846C11.2197 0.27281 11.4594 2.41292 10.6953 3.71089C10.2686 4.43562 9.64757 4.87116 9.2366 5.15938C8.99979 5.32545 8.81272 5.45663 8.79607 5.55465C8.79231 5.57694 8.79733 5.59695 8.81196 5.61765C8.86758 5.69635 8.95743 5.78901 9.07125 5.90636C9.38444 6.22927 9.85771 6.71728 10.2852 7.58781C10.4773 7.97894 12.0342 9.20961 12.4352 9.50517C12.4548 9.51959 12.9139 9.8596 12.8853 9.9806C12.8831 9.99025 12.8741 10.0132 12.8404 10.0186C12.7578 10.0316 12.517 9.92259 12.1249 9.69401C11.6116 9.39485 11.2521 9.13349 10.9895 8.9425C10.734 8.7566 10.5742 8.64076 10.477 8.64084C10.4931 8.68649 10.5395 8.80297 10.6707 9.09453C10.6739 9.10157 10.6808 9.11827 10.6733 9.13243L10.6664 9.14907L10.6535 9.1511C10.6535 9.15111 10.6535 9.15111 10.6535 9.15111C10.6334 9.15429 10.6204 9.13964 10.5156 9.04358C10.1961 8.75055 9.22307 7.85469 8.06046 7.80841C7.37919 7.78127 6.46108 7.29042 6.02458 6.40475C5.36439 5.06533 4.85804 4.2371 2.85387 4.09351C2.53743 4.07081 2.53661 4.05306 2.53541 4.02618Z" fill="#FFA100"/>
</svg>
