<svg fill="none" height="39" viewBox="0 0 50 39" width="50" xmlns="http://www.w3.org/2000/svg">
    <path
        d="M42.3916 3.23753C48.0385 11.5914 50.8272 21.0143 49.7847 31.8622C49.7804 31.9081 49.7566 31.9503 49.7191 31.9779C45.4429 35.1374 41.2997 37.0548 37.2148 38.3263C37.1829 38.336 37.1489 38.3355 37.1174 38.3248C37.0859 38.3141 37.0586 38.2937 37.0391 38.2666C36.0954 36.9453 35.2379 35.5524 34.4866 34.0897C34.4435 34.0035 34.4829 33.8997 34.5716 33.8658C35.9335 33.3495 37.2285 32.7307 38.4741 31.9981C38.5723 31.9402 38.5785 31.7987 38.4879 31.7308C38.2235 31.5333 37.9616 31.3258 37.711 31.1183C37.6641 31.0799 37.601 31.0724 37.5479 31.0982C29.461 34.8556 20.6023 34.8556 12.4198 31.0982C12.3667 31.0743 12.3035 31.0824 12.2579 31.1202C12.0079 31.3277 11.7454 31.5333 11.4835 31.7308C11.3929 31.7987 11.4004 31.9402 11.4992 31.9981C12.7448 32.7169 14.0398 33.3495 15.3998 33.8683C15.4879 33.9023 15.5298 34.0035 15.486 34.0897C14.751 35.5543 13.8935 36.9472 12.9323 38.2685C12.8904 38.3219 12.8217 38.3465 12.7567 38.3263C8.69105 37.0548 4.54793 35.1374 0.271689 31.9779C0.236064 31.9503 0.210439 31.9062 0.206689 31.8603C-0.66456 22.477 1.11106 12.9761 7.59293 3.23565C7.60855 3.20986 7.6323 3.18974 7.6598 3.17779C10.8492 1.70499 14.266 0.621454 17.8373 0.00265099C17.9023 -0.00741085 17.9673 0.0227747 18.001 0.0806303C18.4423 0.866712 18.9467 1.87478 19.2879 2.6986C23.0523 2.12004 26.8754 2.12004 30.7185 2.6986C31.0598 1.89239 31.5466 0.866712 31.986 0.0806303C32.0017 0.0519287 32.0259 0.0289346 32.0553 0.0149307C32.0847 0.00092677 32.1178 -0.00337099 32.1498 0.00265099C35.7229 0.623341 39.1397 1.70688 42.3266 3.17779C42.3547 3.18974 42.3779 3.20986 42.3916 3.23753ZM21.2017 21.0784C21.241 18.3045 19.231 16.0092 16.7079 16.0092C14.2054 16.0092 12.2148 18.2844 12.2148 21.0784C12.2148 23.8719 14.2448 26.1471 16.7079 26.1471C19.211 26.1471 21.2017 23.8719 21.2017 21.0784ZM37.8154 21.0784C37.8547 18.3045 35.8448 16.0092 33.3223 16.0092C30.8191 16.0092 28.8285 18.2844 28.8285 21.0784C28.8285 23.8719 30.8585 26.1471 33.3223 26.1471C35.8448 26.1471 37.8154 23.8719 37.8154 21.0784Z"
        fill="white" />
</svg>
