<svg fill="none" height="50" viewBox="0 0 50 50" width="50" xmlns="http://www.w3.org/2000/svg">
    <path clip-rule="evenodd"
        d="M25 0C11.1985 0 0 11.1985 0 25C0 38.8016 11.1985 50 25 50C38.7744 50 50 38.8016 50 25C50 11.1985 38.7744 0 25 0ZM41.513 11.5239C44.4956 15.1573 46.2853 19.7939 46.3395 24.8102C45.6345 24.6747 38.5845 23.2375 31.4805 24.1323C31.3178 23.7798 31.1822 23.4002 31.0195 23.0206C30.5856 21.9903 30.0977 20.9328 29.6095 19.9295C37.4728 16.73 41.052 12.1204 41.513 11.5239ZM25 3.68764C30.423 3.68764 35.385 5.72127 39.1541 9.05641C38.7744 9.5987 35.5477 13.91 27.9555 16.757C24.4577 10.3308 20.5803 5.0705 19.9838 4.25705C21.5834 3.87744 23.2647 3.68764 25 3.68764ZM15.9166 5.69414C16.4859 6.45336 20.282 11.7408 23.8341 18.0314C13.8558 20.6887 5.04339 20.6345 4.09436 20.6345C5.47722 14.0184 9.95119 8.51409 15.9166 5.69414ZM3.63341 25.0272C3.63341 24.8102 3.63341 24.5933 3.63341 24.3764C4.55531 24.4034 14.9132 24.5391 25.5694 21.3395C26.1931 22.5325 26.7625 23.7527 27.3048 24.9728C27.0336 25.0542 26.7353 25.1356 26.4642 25.2169C15.4555 28.7689 9.5987 38.4761 9.11063 39.2895C5.72125 35.5206 3.63341 30.5044 3.63341 25.0272ZM25 46.3666C20.065 46.3666 15.5098 44.6855 11.9035 41.8655C12.2831 41.0792 16.6214 32.7278 28.6605 28.525C28.7147 28.4978 28.7419 28.4978 28.7961 28.4708C31.8058 36.2527 33.0261 42.7873 33.3514 44.6583C30.7755 45.77 27.9555 46.3666 25 46.3666ZM36.9034 42.7061C36.6866 41.4045 35.5477 35.1681 32.7548 27.4945C39.4523 26.437 45.3091 28.1725 46.0413 28.4166C45.1194 34.3547 41.7028 39.4794 36.9034 42.7061Z"
        fill="white" fill-rule="evenodd" />
</svg>
