<svg fill="none" height="50" viewBox="0 0 34 50" width="34" xmlns="http://www.w3.org/2000/svg">
    <path
        d="M8.33346 50.0008C12.9335 50.0008 16.6669 46.2674 16.6669 41.6674V33.334H8.33346C3.73343 33.334 0 37.0674 0 41.6674C0 46.2674 3.73343 50.0008 8.33346 50.0008Z"
        fill="white" />
    <path
        d="M0 24.9994C0 20.3994 3.73343 16.666 8.33346 16.666H16.6669V33.3326H8.33346C3.73343 33.3328 0 29.5994 0 24.9994Z"
        fill="white" />
    <path
        d="M0 8.3334C0 3.7334 3.73343 0 8.33346 0H16.6669V16.6666H8.33346C3.73343 16.6666 0 12.9334 0 8.3334Z"
        fill="white" />
    <path
        d="M16.6665 0H25C29.6 0 33.3334 3.7334 33.3334 8.3334C33.3334 12.9334 29.6 16.6666 25 16.6666H16.6665V0Z"
        fill="white" />
    <path
        d="M33.3334 24.9994C33.3334 29.5994 29.6 33.3328 25 33.3328C20.3999 33.3328 16.6665 29.5994 16.6665 24.9994C16.6665 20.3994 20.3999 16.666 25 16.666C29.6 16.666 33.3334 20.3994 33.3334 24.9994Z"
        fill="white" />
</svg>
