<svg fill="none" height="854" viewBox="0 0 1300 854" width="1300"
    xmlns="http://www.w3.org/2000/svg">
    <g opacity="0.5">
        <path
            d="M714.821 -10.3325L1298.37 -515.529L714.821 -10.3325ZM702.129 75.0407L829.025 -6.30288L702.129 75.0407ZM746.826 145.016L1111.53 17.0553L746.826 145.016ZM640.852 239.306L906.57 201.803L640.852 239.306ZM692.055 299.781L912.12 316.514L692.055 299.781ZM742.226 359.96L1297.69 491.298L742.226 359.96ZM688.32 422.939L1297.69 712.175L688.32 422.939ZM730.315 539.228L1133.41 844.022L730.315 539.228ZM788.556 747.038L1213.12 1237.76L788.556 747.038ZM660.331 726.867L972.858 1236.04L660.331 726.867ZM498.909 604.476L729.678 1243.4L498.909 604.476ZM456.831 822.508L494.225 1106.05L456.831 822.508ZM353.414 688.013L311.586 1236.04L353.414 688.013ZM275.588 720.758L193.541 1067.46L275.588 720.758ZM126.092 822.751L-70.9401 1236.04L126.092 822.751ZM-40.4914 831.394L-351.075 1236.04L-40.4914 831.394ZM156.541 474.519L-588 1118.21L156.541 474.519ZM38.0026 488.619L-588 880.668L38.0026 488.619ZM37.0766 405.553L-482.655 592.911L37.0766 405.553ZM152.821 308.068L-588 412.542L152.821 308.068ZM86.7618 257.929L-587.992 213.315L86.7618 257.929ZM-14.3166 183.362L-588 51.1058L-14.3166 183.362ZM121.408 156.855L-415.707 -94.5827L121.408 156.855ZM-46.4657 -49.1109L-587.992 -456.019L-46.4657 -49.1109ZM80.4686 -71.8468L-256.024 -457.369L80.4686 -71.8468ZM5.20067 -327.162L-120.284 -528.256L5.20067 -327.162ZM187.643 -257.406L50.0806 -649L187.643 -257.406ZM323.019 -134.408L267.784 -532.164L323.019 -134.408ZM419.109 -245.431L441.8 -533.796L419.109 -245.431ZM466.677 -98.6046L595.418 -649L466.677 -98.6046ZM637.026 -270.095L784.692 -580.368L637.026 -270.095ZM773.016 -245.644L954.434 -481.851L773.016 -245.644ZM508.945 233.395L644.26 182.884L508.945 233.395ZM514.836 255.713L532.463 253.239L514.836 255.713ZM516.696 288.944L526.473 289.612L516.696 288.944ZM578.368 292.079L630.687 296.935L578.368 292.079ZM546.317 314.23L627.787 333.217L546.317 314.23ZM541.208 353.934L628.06 394.625L541.208 353.934ZM560.665 410.706L676.166 499.979L560.665 410.706ZM522.124 439.3L585.002 514.398L522.124 439.3ZM629.472 563.58L744.966 697.112L629.472 563.58ZM472.552 382.195L478.625 389.275L472.552 382.195ZM467.322 416.67L623.771 671.363L467.322 416.67ZM428.523 409.969L450.424 470.414L428.523 409.969ZM418.297 543.986L436.645 689.652L418.297 543.986ZM368.673 475.931L358.182 621.756L368.673 475.931ZM346.536 416.207L308.185 580.769L346.536 416.207ZM319.36 407.025L317.773 410.387L319.36 407.025ZM257.005 539.608L185.115 692.885L257.005 539.608ZM292.896 391.127L286.77 396.59L292.896 391.127ZM257.43 351.438L236.485 364.558L257.43 351.438ZM174.206 545.102L70.6757 681.714L174.206 545.102ZM168.11 407.192L107.069 447.048L168.11 407.192ZM246.665 329.043L112.284 376.647L246.665 329.043ZM238.649 294.674L232.507 295.547L238.649 294.674ZM229.577 269.092L165.909 263.34L229.577 269.092ZM242.778 243.442L216.862 238.935L242.778 243.442ZM114.766 215.182L47.6134 197.781L114.766 215.182ZM270.221 190.89L87.2779 54.3462L270.221 190.89ZM290.11 171.357L196.851 66.0329L290.11 171.357ZM237.533 47.228L100.608 -173.483L237.533 47.228ZM333.829 147.581L247.477 -86.6751L333.829 147.581ZM362.683 141.397L347.683 44.8072L362.683 141.397ZM397.694 52.7678L406.151 -64.1366L397.694 52.7678ZM408.474 144.091L432.865 39.7531L408.474 144.091ZM437.913 154.373L573.001 -129.976L437.913 154.373ZM461.484 168.762L472.218 154.563L461.484 168.762ZM530.049 78.0762L687.273 -131.836L530.049 78.0762ZM557.036 126.037L607.511 82.4625L557.036 126.037ZM526.405 183.249L608.763 131.797L526.405 183.249Z"
            fill="#5956E9" />
        <path
            d="M526.405 183.248L608.763 131.797M714.821 -10.3325L1298.37 -515.529L714.821 -10.3325ZM702.129 75.0407L829.025 -6.30287L702.129 75.0407ZM746.826 145.016L1111.53 17.0553L746.826 145.016ZM640.852 239.306L906.57 201.803L640.852 239.306ZM692.055 299.781L912.12 316.514L692.055 299.781ZM742.226 359.96L1297.69 491.298L742.226 359.96ZM688.32 422.939L1297.69 712.175L688.32 422.939ZM730.315 539.228L1133.41 844.022L730.315 539.228ZM788.556 747.038L1213.12 1237.76L788.556 747.038ZM660.331 726.867L972.858 1236.04L660.331 726.867ZM498.909 604.476L729.678 1243.4L498.909 604.476ZM456.831 822.508L494.225 1106.05L456.831 822.508ZM353.414 688.013L311.586 1236.04L353.414 688.013ZM275.588 720.758L193.541 1067.46L275.588 720.758ZM126.092 822.751L-70.9402 1236.04L126.092 822.751ZM-40.4914 831.394L-351.075 1236.04L-40.4914 831.394ZM156.541 474.519L-588 1118.21L156.541 474.519ZM38.0027 488.619L-588 880.668L38.0027 488.619ZM37.0766 405.553L-482.655 592.911L37.0766 405.553ZM152.821 308.068L-588 412.542L152.821 308.068ZM86.7618 257.929L-587.992 213.315L86.7618 257.929ZM-14.3166 183.362L-588 51.1058L-14.3166 183.362ZM121.408 156.855L-415.707 -94.5826L121.408 156.855ZM-46.4658 -49.1109L-587.992 -456.019L-46.4658 -49.1109ZM80.4686 -71.8468L-256.024 -457.369L80.4686 -71.8468ZM5.20069 -327.162L-120.284 -528.256L5.20069 -327.162ZM187.643 -257.406L50.0805 -649L187.643 -257.406ZM323.019 -134.408L267.784 -532.164L323.019 -134.408ZM419.109 -245.431L441.8 -533.796L419.109 -245.431ZM466.677 -98.6046L595.418 -649L466.677 -98.6046ZM637.026 -270.095L784.692 -580.368L637.026 -270.095ZM773.016 -245.644L954.434 -481.851L773.016 -245.644ZM508.945 233.395L644.26 182.884L508.945 233.395ZM514.836 255.713L532.463 253.239L514.836 255.713ZM516.696 288.944L526.473 289.612L516.696 288.944ZM578.368 292.079L630.687 296.935L578.368 292.079ZM546.317 314.23L627.787 333.217L546.317 314.23ZM541.208 353.934L628.06 394.625L541.208 353.934ZM560.665 410.705L676.166 499.979L560.665 410.705ZM522.124 439.3L585.002 514.398L522.124 439.3ZM629.472 563.58L744.967 697.112L629.472 563.58ZM472.552 382.195L478.625 389.275L472.552 382.195ZM467.322 416.67L623.771 671.363L467.322 416.67ZM428.523 409.969L450.424 470.414L428.523 409.969ZM418.297 543.986L436.645 689.652L418.297 543.986ZM368.673 475.931L358.182 621.756L368.673 475.931ZM346.536 416.207L308.185 580.769L346.536 416.207ZM319.36 407.025L317.773 410.387L319.36 407.025ZM257.005 539.608L185.115 692.885L257.005 539.608ZM292.896 391.127L286.77 396.59L292.896 391.127ZM257.43 351.438L236.485 364.558L257.43 351.438ZM174.206 545.102L70.6757 681.714L174.206 545.102ZM168.11 407.192L107.069 447.048L168.11 407.192ZM246.665 329.043L112.284 376.647L246.665 329.043ZM238.649 294.674L232.507 295.547L238.649 294.674ZM229.577 269.092L165.909 263.34L229.577 269.092ZM242.778 243.442L216.862 238.935L242.778 243.442ZM114.766 215.182L47.6133 197.781L114.766 215.182ZM270.221 190.89L87.2779 54.3462L270.221 190.89ZM290.11 171.357L196.851 66.0329L290.11 171.357ZM237.533 47.228L100.608 -173.483L237.533 47.228ZM333.829 147.581L247.477 -86.6751L333.829 147.581ZM362.683 141.397L347.683 44.8072L362.683 141.397ZM397.694 52.7678L406.151 -64.1366L397.694 52.7678ZM408.474 144.091L432.865 39.7531L408.474 144.091ZM437.913 154.373L573.001 -129.976L437.913 154.373ZM461.484 168.762L472.218 154.563L461.484 168.762ZM530.049 78.0762L687.273 -131.836L530.049 78.0762ZM557.036 126.037L607.511 82.4625L557.036 126.037Z"
            stroke="#FFA100" stroke-miterlimit="10" stroke-opacity="0.2" stroke-width="2" />
    </g>
</svg>
