<svg fill="none" height="50" viewBox="0 0 51 50" width="51" xmlns="http://www.w3.org/2000/svg">
    <path
        d="M16.678 25C16.678 20.3978 20.41 16.666 25.015 16.666C29.62 16.666 33.354 20.3978 33.354 25C33.354 29.6022 29.62 33.334 25.015 33.334C20.41 33.334 16.678 29.6022 16.678 25ZM12.1701 25C12.1701 32.09 17.9207 37.8372 25.015 37.8372C32.1093 37.8372 37.8599 32.09 37.8599 25C37.8599 17.91 32.1093 12.1628 25.015 12.1628C17.9207 12.1628 12.1701 17.91 12.1701 25ZM35.3666 11.6538C35.3664 12.2471 35.5422 12.8272 35.8718 13.3207C36.2015 13.8142 36.6701 14.1989 37.2186 14.4262C37.767 14.6535 38.3705 14.7131 38.9529 14.5976C39.5352 14.4821 40.0702 14.1966 40.4902 13.7772C40.9101 13.3578 41.1962 12.8233 41.3123 12.2414C41.4284 11.6596 41.3691 11.0563 41.1422 10.5081C40.9152 9.95979 40.5306 9.4911 40.0371 9.16126C39.5436 8.83142 38.9633 8.65524 38.3696 8.655H38.3684C37.5726 8.65537 36.8095 8.9714 36.2466 9.53366C35.6838 10.0959 35.3673 10.8585 35.3666 11.6538ZM14.9089 45.3494C12.4701 45.2384 11.1445 44.8324 10.2636 44.4894C9.09565 44.035 8.26235 43.4938 7.38623 42.6194C6.5101 41.745 5.96778 40.913 5.51511 39.7458C5.1717 38.8658 4.76546 37.5406 4.65459 35.1032C4.53332 32.468 4.5091 31.6764 4.5091 25.0002C4.5091 18.324 4.53532 17.5346 4.65459 14.8972C4.76566 12.4598 5.1749 11.1372 5.51511 10.2546C5.96978 9.0874 6.5113 8.2546 7.38623 7.379C8.26115 6.5034 9.09365 5.9614 10.2636 5.509C11.1441 5.1658 12.4701 4.7598 14.9089 4.649C17.5457 4.5278 18.3378 4.5036 25.015 4.5036C31.6922 4.5036 32.4851 4.5298 35.1241 4.649C37.5629 4.76 38.8863 5.169 39.7694 5.509C40.9374 5.9614 41.7706 6.5046 42.6468 7.379C43.5229 8.2534 44.0632 9.0874 44.5179 10.2546C44.8613 11.1346 45.2675 12.4598 45.3784 14.8972C45.4997 17.5346 45.5239 18.324 45.5239 25.0002C45.5239 31.6764 45.4997 32.4658 45.3784 35.1032C45.2673 37.5406 44.8591 38.8654 44.5179 39.7458C44.0632 40.913 43.5217 41.7458 42.6468 42.6194C41.7719 43.493 40.9374 44.035 39.7694 44.4894C38.8889 44.8326 37.5629 45.2386 35.1241 45.3494C32.4873 45.4706 31.6952 45.4948 25.015 45.4948C18.3348 45.4948 17.5449 45.4706 14.9089 45.3494ZM14.7018 0.1514C12.0388 0.2726 10.2191 0.6946 8.62998 1.3126C6.98419 1.9508 5.59095 2.807 4.19872 4.1962C2.80648 5.5854 1.95197 6.98 1.31339 8.6248C0.695017 10.214 0.272764 12.0316 0.151491 14.693C0.0282169 17.3586 0 18.2108 0 25C0 31.7892 0.0282169 32.6414 0.151491 35.307C0.272764 37.9686 0.695017 39.786 1.31339 41.3752C1.95197 43.019 2.80668 44.4152 4.19872 45.8038C5.59075 47.1924 6.98419 48.0474 8.62998 48.6874C10.2221 49.3054 12.0388 49.7274 14.7018 49.8486C17.3704 49.9698 18.2217 50 25.015 50C31.8083 50 32.661 49.9718 35.3282 49.8486C37.9914 49.7274 39.8099 49.3054 41.4 48.6874C43.0448 48.0474 44.439 47.193 45.8313 45.8038C47.2235 44.4146 48.0762 43.019 48.7166 41.3752C49.335 39.786 49.7592 37.9684 49.8785 35.307C49.9998 32.6394 50.028 31.7892 50.028 25C50.028 18.2108 49.9998 17.3586 49.8785 14.693C49.7572 12.0314 49.335 10.213 48.7166 8.6248C48.0762 6.981 47.2213 5.5876 45.8313 4.1962C44.4412 2.8048 43.0448 1.9508 41.402 1.3126C39.8099 0.6946 37.9912 0.2706 35.3302 0.1514C32.663 0.0302 31.8103 0 25.017 0C18.2237 0 17.3704 0.0282 14.7018 0.1514Z"
        fill="url(#paint0_radial_1806_7434)" />
    <path
        d="M16.678 25C16.678 20.3978 20.41 16.666 25.015 16.666C29.62 16.666 33.354 20.3978 33.354 25C33.354 29.6022 29.62 33.334 25.015 33.334C20.41 33.334 16.678 29.6022 16.678 25ZM12.1701 25C12.1701 32.09 17.9207 37.8372 25.015 37.8372C32.1093 37.8372 37.8599 32.09 37.8599 25C37.8599 17.91 32.1093 12.1628 25.015 12.1628C17.9207 12.1628 12.1701 17.91 12.1701 25ZM35.3666 11.6538C35.3664 12.2471 35.5422 12.8272 35.8718 13.3207C36.2015 13.8142 36.6701 14.1989 37.2186 14.4262C37.767 14.6535 38.3705 14.7131 38.9529 14.5976C39.5352 14.4821 40.0702 14.1966 40.4902 13.7772C40.9101 13.3578 41.1962 12.8233 41.3123 12.2414C41.4284 11.6596 41.3691 11.0563 41.1422 10.5081C40.9152 9.95979 40.5306 9.4911 40.0371 9.16126C39.5436 8.83142 38.9633 8.65524 38.3696 8.655H38.3684C37.5726 8.65537 36.8095 8.9714 36.2466 9.53366C35.6838 10.0959 35.3673 10.8585 35.3666 11.6538ZM14.9089 45.3494C12.4701 45.2384 11.1445 44.8324 10.2636 44.4894C9.09565 44.035 8.26235 43.4938 7.38623 42.6194C6.5101 41.745 5.96778 40.913 5.51511 39.7458C5.1717 38.8658 4.76546 37.5406 4.65459 35.1032C4.53332 32.468 4.5091 31.6764 4.5091 25.0002C4.5091 18.324 4.53532 17.5346 4.65459 14.8972C4.76566 12.4598 5.1749 11.1372 5.51511 10.2546C5.96978 9.0874 6.5113 8.2546 7.38623 7.379C8.26115 6.5034 9.09365 5.9614 10.2636 5.509C11.1441 5.1658 12.4701 4.7598 14.9089 4.649C17.5457 4.5278 18.3378 4.5036 25.015 4.5036C31.6922 4.5036 32.4851 4.5298 35.1241 4.649C37.5629 4.76 38.8863 5.169 39.7694 5.509C40.9374 5.9614 41.7706 6.5046 42.6468 7.379C43.5229 8.2534 44.0632 9.0874 44.5179 10.2546C44.8613 11.1346 45.2675 12.4598 45.3784 14.8972C45.4997 17.5346 45.5239 18.324 45.5239 25.0002C45.5239 31.6764 45.4997 32.4658 45.3784 35.1032C45.2673 37.5406 44.8591 38.8654 44.5179 39.7458C44.0632 40.913 43.5217 41.7458 42.6468 42.6194C41.7719 43.493 40.9374 44.035 39.7694 44.4894C38.8889 44.8326 37.5629 45.2386 35.1241 45.3494C32.4873 45.4706 31.6952 45.4948 25.015 45.4948C18.3348 45.4948 17.5449 45.4706 14.9089 45.3494ZM14.7018 0.1514C12.0388 0.2726 10.2191 0.6946 8.62998 1.3126C6.98419 1.9508 5.59095 2.807 4.19872 4.1962C2.80648 5.5854 1.95197 6.98 1.31339 8.6248C0.695017 10.214 0.272764 12.0316 0.151491 14.693C0.0282169 17.3586 0 18.2108 0 25C0 31.7892 0.0282169 32.6414 0.151491 35.307C0.272764 37.9686 0.695017 39.786 1.31339 41.3752C1.95197 43.019 2.80668 44.4152 4.19872 45.8038C5.59075 47.1924 6.98419 48.0474 8.62998 48.6874C10.2221 49.3054 12.0388 49.7274 14.7018 49.8486C17.3704 49.9698 18.2217 50 25.015 50C31.8083 50 32.661 49.9718 35.3282 49.8486C37.9914 49.7274 39.8099 49.3054 41.4 48.6874C43.0448 48.0474 44.439 47.193 45.8313 45.8038C47.2235 44.4146 48.0762 43.019 48.7166 41.3752C49.335 39.786 49.7592 37.9684 49.8785 35.307C49.9998 32.6394 50.028 31.7892 50.028 25C50.028 18.2108 49.9998 17.3586 49.8785 14.693C49.7572 12.0314 49.335 10.213 48.7166 8.6248C48.0762 6.981 47.2213 5.5876 45.8313 4.1962C44.4412 2.8048 43.0448 1.9508 41.402 1.3126C39.8099 0.6946 37.9912 0.2706 35.3302 0.1514C32.663 0.0302 31.8103 0 25.017 0C18.2237 0 17.3704 0.0282 14.7018 0.1514Z"
        fill="white" />
    <defs>
        <radialGradient cx="0" cy="0"
            gradientTransform="translate(6.64678 50.2362) scale(65.31 65.2708)"
            gradientUnits="userSpaceOnUse" id="paint0_radial_1806_7434" r="1">
            <stop offset="0.09" stop-color="#FA8F21" />
            <stop offset="0.78" stop-color="#D82D7E" />
        </radialGradient>
    </defs>
</svg>
