<svg fill="none" height="24" viewBox="0 0 24 24" width="24" xmlns="http://www.w3.org/2000/svg">
    <path
        d="M20 10.4001C20.0148 10.9817 20 11.2435 20 12.0001C20 15.0171 20 16.5256 19.0627 17.4628C18.1255 18.4001 16.617 18.4001 13.6 18.4001H10.4C7.38301 18.4001 5.87452 18.4001 4.93726 17.4628C4 16.5256 4 15.0171 4 12.0001C4 8.98311 4 7.47461 4.93726 6.53736C5.87452 5.6001 7.38301 5.6001 10.4 5.6001H12.8"
        stroke="#0A0A0A" stroke-linecap="round" stroke-width="1.5" />
    <path
        d="M7.20001 8.7998L8.92713 10.2391C10.3964 11.4635 11.1311 12.0757 12 12.0757C12.8689 12.0757 13.6036 11.4635 15.0729 10.2391"
        stroke="#0A0A0A" stroke-linecap="round" stroke-width="1.5" />
    <circle cx="17.6" cy="6.4" r="2.4" stroke="#0A0A0A" stroke-width="1.5" />
</svg>
