<svg fill="none" height="50" viewBox="0 0 38 50" width="38" xmlns="http://www.w3.org/2000/svg">
    <path
        d="M16.5557 0.167211C8.43928 1.09474 0.351444 7.8169 0.0176303 17.4193C-0.192196 23.2822 1.43395 27.6807 6.88466 28.9158C9.24997 24.6442 6.12166 23.7021 5.63524 20.6119C3.63713 7.9487 19.9034 -0.687094 28.4157 8.15374C34.3051 14.2754 30.4281 33.1092 20.9287 31.1516C11.8299 29.2819 25.3827 14.2901 18.1199 11.3464C12.2161 8.95434 9.07829 18.6641 11.8776 23.4873C10.2371 31.7814 6.70345 39.597 8.13408 50C12.7741 46.5535 14.3382 39.9534 15.621 33.0701C17.953 34.52 19.1976 36.0285 22.1733 36.2628C33.1463 37.1317 39.2742 25.0494 37.7768 13.9044C36.4463 4.02378 26.8134 -1.00441 16.5557 0.167211Z"
        fill="white" />
</svg>
