<svg fill="none" height="50" viewBox="0 0 50 50" width="50" xmlns="http://www.w3.org/2000/svg">
    <path
        d="M0 50L3.58739 36.6731C0.694249 31.4816 -0.224929 25.4235 0.998521 19.6106C2.22197 13.7977 5.50598 8.61976 10.2479 5.02705C14.9899 1.43433 20.8717 -0.332198 26.8141 0.0516117C32.7564 0.435421 38.3607 2.94383 42.5985 7.11653C46.8364 11.2892 49.4235 16.8463 49.8851 22.7681C50.3468 28.6899 48.652 34.5791 45.1118 39.3551C41.5716 44.1311 36.4234 47.4735 30.612 48.7689C24.8005 50.0644 18.7156 49.226 13.4739 46.4077L0 50ZM14.1236 41.4206L14.9569 41.9137C18.7536 44.1584 23.1881 45.0872 27.5693 44.5556C31.9505 44.0239 36.0324 42.0616 39.1788 38.9744C42.3251 35.8872 44.3593 31.8485 44.9643 27.4878C45.5692 23.127 44.711 18.6891 42.5233 14.8657C40.3356 11.0422 36.9413 8.04804 32.8695 6.34967C28.7976 4.6513 24.2769 4.34416 20.0117 5.47612C15.7466 6.60808 11.9767 9.11555 9.28941 12.6078C6.60216 16.1 5.14855 20.3808 5.1551 24.7831C5.15153 28.4333 6.16361 32.0129 8.07868 35.1235L8.60125 35.9828L6.59571 43.4211L14.1236 41.4206Z"
        fill="white" />
    <path clip-rule="evenodd"
        d="M34.3481 28.2049C33.8596 27.8119 33.2876 27.5353 32.6758 27.3962C32.0639 27.257 31.4282 27.259 30.8172 27.4019C29.8992 27.7823 29.306 29.2192 28.7128 29.9377C28.5877 30.1099 28.4039 30.2307 28.1959 30.2774C27.9879 30.3241 27.7699 30.2935 27.5829 30.1913C24.222 28.8783 21.4048 26.4704 19.589 23.3588C19.4341 23.1646 19.3608 22.9181 19.3845 22.6711C19.4082 22.4241 19.5271 22.1959 19.7161 22.0345C20.3777 21.3812 20.8635 20.5721 21.1284 19.6819C21.1873 18.7 20.9618 17.722 20.4788 16.8644C20.1054 15.6621 19.3947 14.5915 18.4308 13.7792C17.9337 13.5562 17.3825 13.4814 16.8437 13.5639C16.3049 13.6464 15.8015 13.8826 15.3943 14.2441C14.6874 14.8524 14.1262 15.6112 13.7523 16.4646C13.3783 17.3179 13.201 18.244 13.2334 19.1747C13.2356 19.6974 13.302 20.2178 13.4311 20.7244C13.7591 21.9414 14.2634 23.1042 14.9282 24.1759C15.4078 24.9968 15.9312 25.7915 16.4959 26.5567C18.3313 29.0699 20.6385 31.2037 23.2894 32.8398C24.6196 33.6711 26.0413 34.3471 27.5264 34.8543C29.0692 35.5518 30.7725 35.8196 32.4555 35.6291C33.4145 35.4843 34.3231 35.1067 35.1013 34.5294C35.8795 33.9521 36.5036 33.1929 36.9186 32.3185C37.1624 31.7903 37.2364 31.1998 37.1305 30.628C36.8762 29.4587 35.3085 28.7684 34.3481 28.2049Z"
        fill="white" fill-rule="evenodd" />
</svg>
