<svg fill="none" height="36" viewBox="0 0 50 36" width="50" xmlns="http://www.w3.org/2000/svg">
    <path
        d="M48.958 5.47847C48.3853 3.32536 46.6911 1.62679 44.5355 1.04466C40.6379 3.80253e-07 25 0 25 0C25 0 9.37003 3.80253e-07 5.46452 1.04466C3.31689 1.61882 1.62265 3.31738 1.042 5.47847C0 9.38596 0 17.5439 0 17.5439C0 17.5439 0 25.7018 1.042 29.6093C1.6147 31.7624 3.30894 33.4609 5.46452 34.0431C9.37003 35.0877 25 35.0877 25 35.0877C25 35.0877 40.6379 35.0877 44.5355 34.0431C46.6831 33.4689 48.3773 31.7703 48.958 29.6093C50 25.7018 50 17.5439 50 17.5439C50 17.5439 50 9.38596 48.958 5.47847Z"
        fill="white" />
    <path d="M20.0048 25.0638L32.994 17.5439L20.0048 10.0239V25.0638Z" fill="#391F0A" />
</svg>
