<svg fill="none" height="29" viewBox="0 0 51 29" width="51" xmlns="http://www.w3.org/2000/svg">
    <path
        d="M28.4461 14.3842C28.4461 22.0218 22.1451 28.2235 14.3395 28.2235C6.53385 28.2235 0.23291 22.0218 0.23291 14.3842C0.23291 6.74663 6.53385 0.544922 14.3395 0.544922C22.1451 0.544922 28.4461 6.74663 28.4461 14.3842ZM43.9006 14.3842C43.9006 21.5635 40.7345 27.3986 36.8473 27.3986C32.9602 27.3986 29.794 21.5635 29.794 14.3842C29.794 7.20488 32.9602 1.36977 36.8473 1.36977C40.7345 1.36977 43.9006 7.17433 43.9006 14.3842ZM50.2329 14.3842C50.2329 20.8303 49.1357 26.0544 47.7564 26.0544C46.3771 26.0544 45.2799 20.8303 45.2799 14.3842C45.2799 7.93809 46.3771 2.71399 47.7564 2.71399C49.1357 2.71399 50.2329 7.93809 50.2329 14.3842Z"
        fill="white" />
</svg>
