<svg fill="none" height="34" viewBox="0 0 35 34" width="35" xmlns="http://www.w3.org/2000/svg">
    <path
        d="M7.98512 33.7598V11.2496H0.503088V33.7598H7.9859H7.98512ZM4.24567 8.17676C6.85426 8.17676 8.47828 6.44824 8.47828 4.28809C8.42946 2.07871 6.85426 0.398438 4.29528 0.398438C1.73453 0.398438 0.0620728 2.07871 0.0620728 4.28789C0.0620728 6.44805 1.68551 8.17656 4.19664 8.17656H4.24508L4.24567 8.17676ZM12.1265 33.7598H19.608V21.1904C19.608 20.5186 19.6568 19.8449 19.8545 19.365C20.3951 18.0203 21.6261 16.6283 23.6935 16.6283C26.4002 16.6283 27.4836 18.6924 27.4836 21.7188V33.7598H34.9648V20.8531C34.9648 13.9393 31.2742 10.7219 26.3517 10.7219C22.316 10.7219 20.5435 12.9775 19.5588 14.5139H19.6086V11.2504H12.1269C12.2246 13.3621 12.1263 33.7605 12.1263 33.7605L12.1265 33.7598Z"
        fill="white" />
</svg>
