<svg fill="none" height="63" viewBox="0 0 50 63" width="50" xmlns="http://www.w3.org/2000/svg">
    <path
        d="M39.3304 32.107C26.1682 38.7451 8.6857 33.0071 1.67267 31.0978C2.28409 33.9181 0.437938 40.0219 0.461611 40.4998C34.4709 41.4283 41.4328 29.6074 39.3304 32.107Z"
        fill="white" />
    <path
        d="M44.193 32.9547C34.2776 40.3822 15.3476 42.5598 8.50094 43.2156C9.03019 44.3772 13.8494 44.7045 16.5915 44.7312C31.3394 44.8748 49.975 37.1999 48.1576 36.221C44.3405 35.931 45.5223 33.6015 44.193 32.9547Z"
        fill="white" />
    <path
        d="M40.8543 43.5294C28.544 48.32 13.4601 48.1755 6.75298 46.0927C5.44634 50.6639 1.90887 50.374 1.93822 50.9664C27.9302 54.3111 41.8306 44.1937 40.8543 43.5294Z"
        fill="white" />
    <path
        d="M11.34 56.8381C11.4729 57.0446 11.5881 57.1819 11.5881 57.1819C11.5881 57.1819 11.0555 56.8116 11.34 56.8381C10.9049 56.162 10.2809 54.7448 12.8942 54.9793C17.1585 55.362 25.2627 56.7119 35.4627 50.7431C39.9626 48.7386 36.9856 55.2998 33.5268 56.8964C19.8293 63.9735 23.5934 62.5894 16.4744 59.1094C12.8323 57.329 11.6379 56.8658 11.34 56.8381Z"
        fill="white" />
    <path d="M17.2261 26.6543H11.245" stroke="white" stroke-width="0.956985" />
    <path d="M37.0832 26.6543H31.1021" stroke="white" stroke-width="0.956985" />
    <path
        d="M6.22058 18.0415L20.5754 26.6543H24.0444M41.629 18.2807L27.5135 26.6543H24.0444M26.7958 23.0656L29.906 18.2807M21.0538 23.0656L17.9436 18.2807M24.0444 26.6543V7.27539"
        stroke="white" stroke-linecap="round" stroke-linejoin="round" stroke-width="0.956985" />
    <mask fill="white" id="path-5-inside-1_1579_307">
        <rect height="4.30643" rx="0.478492" width="4.30643" x="22.011" y="3.44775" />
    </mask>
    <rect height="4.30643" mask="url(#path-5-inside-1_1579_307)" rx="0.478492" stroke="white"
        stroke-width="2.87095" width="4.30643" x="22.011" y="3.44775" />
    <mask fill="white" id="path-6-inside-2_1579_307">
        <rect height="4.30643" rx="0.478492" width="4.30643" x="35.8876" y="24.5015" />
    </mask>
    <rect height="4.30643" mask="url(#path-6-inside-2_1579_307)" rx="0.478492" stroke="white"
        stroke-width="2.87095" width="4.30643" x="35.8876" y="24.5015" />
    <mask fill="white" id="path-7-inside-3_1579_307">
        <rect height="4.30643" rx="0.478492" width="4.30643" x="8.13501" y="24.5015" />
    </mask>
    <rect height="4.30643" mask="url(#path-7-inside-3_1579_307)" rx="0.478492" stroke="white"
        stroke-width="2.87095" width="4.30643" x="8.13501" y="24.5015" />
    <mask fill="white" id="path-8-inside-4_1579_307">
        <rect height="4.30643" rx="0.478492" transform="rotate(30.4189 3.61621 13.9746)"
            width="4.30643" x="3.61621" y="13.9746" />
    </mask>
    <rect height="4.30643" mask="url(#path-8-inside-4_1579_307)" rx="0.478492" stroke="white"
        stroke-width="2.87095" transform="rotate(30.4189 3.61621 13.9746)" width="4.30643"
        x="3.61621" y="13.9746" />
    <mask fill="white" id="path-9-inside-5_1579_307">
        <rect height="4.30643" rx="0.478492"
            transform="matrix(-0.862347 0.506318 0.506318 0.862347 44.3861 13.9746)"
            width="4.30643" />
    </mask>
    <rect height="4.30643" mask="url(#path-9-inside-5_1579_307)" rx="0.478492" stroke="white"
        stroke-width="2.87095"
        transform="matrix(-0.862347 0.506318 0.506318 0.862347 44.3861 13.9746)" width="4.30643" />
    <mask fill="white" id="path-10-inside-6_1579_307">
        <rect height="4.30643" rx="0.478492"
            transform="matrix(-0.547894 0.836548 0.836548 0.547894 30.5906 13.4961)"
            width="4.30643" />
    </mask>
    <rect height="4.30643" mask="url(#path-10-inside-6_1579_307)" rx="0.478492" stroke="white"
        stroke-width="2.87095"
        transform="matrix(-0.547894 0.836548 0.836548 0.547894 30.5906 13.4961)" width="4.30643" />
    <mask fill="white" id="path-11-inside-7_1579_307">
        <rect height="4.30643" rx="0.478492" transform="rotate(56.7773 17.4792 13.4961)"
            width="4.30643" x="17.4792" y="13.4961" />
    </mask>
    <rect height="4.30643" mask="url(#path-11-inside-7_1579_307)" rx="0.478492" stroke="white"
        stroke-width="2.87095" transform="rotate(56.7773 17.4792 13.4961)" width="4.30643"
        x="17.4792" y="13.4961" />
    <path
        d="M2.96756 4.71244C2.96592 4.67653 3.00903 4.66973 3.03477 4.66566C3.24067 4.63317 4.2013 4.63781 5.01238 4.76714C5.06485 4.77552 5.10525 4.77724 5.13587 4.77241C5.19561 4.76298 5.21428 4.73069 5.25072 4.65851C5.29469 4.57147 5.35492 4.45231 5.54775 4.32977C5.62733 4.27921 5.72347 4.24474 5.83345 4.22739C6.26672 4.159 6.85979 4.35983 7.24369 4.70491C7.24609 4.70707 7.24729 4.70738 7.24741 4.70736C7.27523 4.70297 7.35464 4.57775 7.45611 4.13494C7.53032 3.81114 7.59508 3.40575 7.62109 3.10208C7.66014 2.64655 7.87741 1.98041 8.02117 1.53966C8.08251 1.35158 8.13098 1.20304 8.14016 1.14663C8.14725 1.10317 8.16536 1.07882 8.19403 1.07429C8.21243 1.07139 8.23156 1.07785 8.25251 1.09405C8.48936 1.27747 9.18777 3.00968 9.24887 3.56535C9.29907 4.02166 8.99424 4.38369 8.84777 4.55766C8.83044 4.57823 8.81193 4.60022 8.79768 4.61837C8.88282 4.57142 9.04721 4.38494 9.2653 4.13753C9.57996 3.7806 10.0555 3.24122 10.7182 2.62914C11.6465 1.77169 12.2028 0.979229 12.5352 0.505794C12.7566 0.190479 12.8495 0.0620119 12.9271 0.0497643C12.9456 0.0468551 12.9802 0.0485591 13.0051 0.0927988C13.1321 0.319311 13.4126 2.8242 12.5183 4.34341C12.0189 5.19167 11.292 5.70146 10.811 6.0388C10.5338 6.23318 10.3148 6.38672 10.2954 6.50145C10.291 6.52753 10.2968 6.55095 10.314 6.57519C10.3791 6.6673 10.4842 6.77575 10.6174 6.9131C10.984 7.29105 11.538 7.86225 12.0383 8.88116C12.2631 9.33896 14.0854 10.7794 14.5548 11.1253C14.5777 11.1422 15.1151 11.5402 15.0816 11.6818C15.079 11.6931 15.0685 11.72 15.0291 11.7262C14.9323 11.7415 14.6506 11.6139 14.1915 11.3464C13.5908 10.9962 13.17 10.6903 12.8627 10.4668C12.5637 10.2492 12.3765 10.1136 12.2628 10.1137C12.2816 10.1671 12.336 10.3034 12.4895 10.6447C12.4932 10.6529 12.5013 10.6725 12.4925 10.6891L12.4845 10.7085L12.4694 10.7109C12.4694 10.7109 12.4694 10.7109 12.4694 10.7109C12.4458 10.7146 12.4306 10.6975 12.308 10.5851C11.934 10.2421 10.7951 9.19354 9.43436 9.13936C8.63696 9.10759 7.56237 8.53308 7.05146 7.49645C6.27875 5.92872 5.68609 4.95932 3.34031 4.79125C2.96993 4.76468 2.96896 4.7439 2.96756 4.71244Z"
        fill="#FFA100" />
</svg>
