<svg fill="none" height="19" viewBox="0 0 19 19" width="19" xmlns="http://www.w3.org/2000/svg">
    <path
        d="M0.810638 18.448L2.0968 13.7775C1.30164 12.4067 0.884506 10.8542 0.888851 9.26707C0.888851 4.2939 4.95591 0.250488 9.94849 0.250488C12.3731 0.250488 14.6499 1.18891 16.3576 2.89276C18.0696 4.59661 19.0125 6.86265 19.0081 9.2714C19.0081 14.2446 14.9411 18.288 9.94414 18.288H9.9398C8.42334 18.288 6.93295 17.9074 5.60768 17.1896L0.810638 18.448ZM5.83798 15.5592L6.11172 15.7236C7.26753 16.4068 8.5928 16.7658 9.94414 16.7701H9.94849C14.0981 16.7701 17.4786 13.4099 17.4786 9.27572C17.4786 7.27348 16.6965 5.39232 15.2756 3.97388C13.8548 2.55545 11.9603 1.77704 9.94849 1.77704C5.79887 1.77271 2.41834 5.13285 2.41834 9.26707C2.41834 10.6812 2.81375 12.0607 3.56981 13.2543L3.74796 13.5397L2.98756 16.303L5.83798 15.5592Z"
        fill="#1A0F11" />
    <path
        d="M0.810638 18.448L2.0968 13.7775C1.30164 12.4067 0.884506 10.8542 0.888851 9.26707C0.888851 4.2939 4.95591 0.250488 9.94849 0.250488C12.3731 0.250488 14.6499 1.18891 16.3576 2.89276C18.0696 4.59661 19.0125 6.86265 19.0081 9.2714C19.0081 14.2446 14.9411 18.288 9.94414 18.288H9.9398C8.42334 18.288 6.93295 17.9074 5.60768 17.1896L0.810638 18.448ZM5.83798 15.5592L6.11172 15.7236C7.26753 16.4068 8.5928 16.7658 9.94414 16.7701H9.94849C14.0981 16.7701 17.4786 13.4099 17.4786 9.27572C17.4786 7.27348 16.6965 5.39232 15.2756 3.97388C13.8548 2.55545 11.9603 1.77704 9.94849 1.77704C5.79887 1.77271 2.41834 5.13285 2.41834 9.26707C2.41834 10.6812 2.81375 12.0607 3.56981 13.2543L3.74796 13.5397L2.98756 16.303L5.83798 15.5592Z"
        fill="#1A0F11" />
    <path clip-rule="evenodd"
        d="M7.68455 5.49558C7.51509 5.11935 7.33694 5.1107 7.17617 5.10638C7.04582 5.10205 6.89374 5.10205 6.74166 5.10205C6.58958 5.10205 6.34625 5.15827 6.13768 5.38314C5.92911 5.60802 5.34686 6.1529 5.34686 7.2643C5.34686 8.37137 6.15941 9.44385 6.27238 9.59521C6.38535 9.74657 7.84098 12.0948 10.1396 12.9986C12.0514 13.7511 12.4425 13.5997 12.8553 13.5608C13.2681 13.5219 14.1936 13.0159 14.3848 12.4883C14.5716 11.9607 14.5716 11.511 14.5151 11.4158C14.4586 11.3207 14.3066 11.2645 14.0806 11.152C13.8547 11.0396 12.7423 10.4947 12.5337 10.4169C12.3252 10.3433 12.1731 10.3044 12.0254 10.5293C11.8733 10.7542 11.4388 11.2601 11.3084 11.4115C11.1781 11.5629 11.0434 11.5802 10.8174 11.4677C10.5915 11.3553 9.86147 11.1174 8.99679 10.3477C8.32329 9.75089 7.86705 9.0114 7.73669 8.78653C7.60634 8.56165 7.72366 8.44057 7.83663 8.32813C7.93657 8.22867 8.06258 8.06433 8.17555 7.9346C8.28853 7.80486 8.32763 7.70973 8.4015 7.55837C8.47537 7.40701 8.44061 7.27728 8.38412 7.16484C8.32764 7.05673 7.88443 5.941 7.68455 5.49558Z"
        fill="#1A0F11" fill-rule="evenodd" />
</svg>
